<svg width="21" height="20" viewBox="0 0 21 20" fill="none" xmlns="http://www.w3.org/2000/svg">
<circle cx="10.86" cy="9.86002" r="7.86002" fill="white"/>
<path d="M20.0841 10.7864C19.6498 15.875 15.1726 19.6479 10.0841 19.2136C4.99558 18.7793 1.22262 14.3021 1.65694 9.21358C2.09127 4.12505 6.56841 0.352089 11.6569 0.786416C16.7455 1.22074 20.5184 5.69788 20.0841 10.7864ZM14.9336 9.02467C15.2216 7.81436 14.3444 7.07561 13.1054 6.52701L13.6612 4.9016L12.6717 4.56339L12.1306 6.14596C11.8705 6.05703 11.6028 5.97128 11.3368 5.88624L11.8818 4.29328L10.8928 3.95511L10.3368 5.5799C10.1211 5.511 9.90933 5.44305 9.70416 5.37307L9.70576 5.36797L8.34117 4.90085L7.98008 5.95759C7.98008 5.95759 8.71553 6.19352 8.6988 6.20279C9.09956 6.33995 9.15044 6.61721 9.1197 6.83092L8.48654 8.68261C8.51416 8.69222 8.54983 8.70571 8.58876 8.72528C8.55578 8.71404 8.52057 8.70175 8.48418 8.68967L7.59681 11.2836C7.53608 11.4037 7.39317 11.5794 7.113 11.4842C7.12181 11.4997 6.3938 11.238 6.3938 11.238L5.79311 12.3523L7.0808 12.7926C7.32032 12.8748 7.55473 12.9595 7.78567 13.0401L7.2239 14.6841L8.21225 15.0222L8.76845 13.3957C9.03006 13.4911 9.2927 13.5837 9.55631 13.6735L9.00219 15.2923L9.99169 15.6306L10.5532 13.9897C12.2493 14.4631 13.557 14.4421 14.2357 12.9296C14.7826 11.7118 14.3828 10.9483 13.516 10.3987C14.1896 10.3028 14.7242 9.91081 14.9336 9.02467V9.02467ZM12.3472 12.0663C11.9276 13.295 9.87165 12.436 9.20084 12.2073L9.94598 10.0293C10.6167 10.2589 12.7854 10.785 12.3472 12.0663ZM12.9379 8.83607C12.5553 9.95363 10.8454 9.22329 10.2869 9.03236L10.9625 7.05699C11.5211 7.24793 13.3364 7.67025 12.9379 8.83607Z" fill="#F7931A"/>
</svg>
