<svg width="60" height="60" viewBox="0 0 20 20" fill="none" xmlns="http://www.w3.org/2000/svg">
<g>
<path d="M30 36C35.5228 36 40 31.5228 40 26C40 20.4772 35.5228 16 30 16C24.4772 16 20 20.4772 20 26C20 31.5228 24.4772 36 30 36Z" fill="#627EEA"/>
</g>
<path d="M29.996 18.8568L29.8992 19.1859V28.7311L29.996 28.8279L34.4267 26.2089L29.996 18.8568Z" fill="#C0CBF6"/>
<path d="M29.9945 18.8571L25.5636 26.2091L29.9945 28.8282V24.195V18.8571Z" fill="white"/>
<path d="M29.9952 29.6652L29.9407 29.7318V33.1321L29.9952 33.2914L34.4288 27.0475L29.9952 29.6652Z" fill="#C0CBF6"/>
<path d="M29.9943 33.2914V29.6652L25.5634 27.0475L29.9943 33.2914Z" fill="white"/>
<path d="M29.9971 28.8259L34.428 26.2068L29.9971 24.1929V28.8259Z" fill="#8197EE"/>
<path d="M25.5634 26.2068L29.9943 28.8259V24.1929L25.5634 26.2068Z" fill="#C0CBF6"/>
<defs>
<filter id="filter0_d" x="0" y="0" width="60" height="60" filterUnits="userSpaceOnUse" color-interpolation-filters="sRGB">
<feFlood flood-opacity="0" result="BackgroundImageFix"/>
<feColorMatrix in="SourceAlpha" type="matrix" values="0 0 0 0 0 0 0 0 0 0 0 0 0 0 0 0 0 0 127 0" result="hardAlpha"/>
<feOffset dy="4"/>
<feGaussianBlur stdDeviation="10"/>
<feColorMatrix type="matrix" values="0 0 0 0 0 0 0 0 0 0 0 0 0 0 0 0 0 0 0.1 0"/>
<feBlend mode="normal" in2="BackgroundImageFix" result="effect1_dropShadow"/>
<feBlend mode="normal" in="SourceGraphic" in2="effect1_dropShadow" result="shape"/>
</filter>
</defs>
</svg>
