<svg width="1285" height="182" viewBox="0 0 1285 182" fill="none" xmlns="http://www.w3.org/2000/svg">
<path d="M322.751 91C322.751 114.613 305.952 137.369 275.815 154.203C245.688 171.031 204.793 180.5 162.126 180.5C119.458 180.5 78.5632 171.031 48.4364 154.203C18.2987 137.369 1.50001 114.613 1.5 91" stroke="white" stroke-opacity="0.1" stroke-linejoin="round" stroke-dasharray="6 6"/>
<path d="M322.75 91C322.75 67.3861 339.497 44.6302 369.54 27.7966C399.573 10.9689 440.341 1.5 482.875 1.5C525.41 1.5 566.177 10.9689 596.21 27.7966C626.253 44.6302 643 67.3862 643 91" stroke="white" stroke-opacity="0.1" stroke-linejoin="round" stroke-dasharray="6 6"/>
<path d="M962.25 91C962.25 102.697 958.152 114.298 950.158 125.145C942.163 135.994 930.428 145.873 915.605 154.204C900.784 162.534 883.177 169.148 863.789 173.662C844.4 178.176 823.617 180.5 802.625 180.5C781.633 180.5 760.849 178.176 741.461 173.662C722.072 169.148 704.466 162.534 689.644 154.204C674.822 145.873 663.087 135.994 655.091 125.145C647.098 114.298 643 102.697 643 91" stroke="white" stroke-opacity="0.1" stroke-linejoin="round" stroke-dasharray="6 6"/>
<path d="M962.249 91C962.249 79.3039 966.372 67.7029 974.416 56.8563C982.461 46.0067 994.27 36.1284 1009.19 27.7969C1024.1 19.4661 1041.82 12.852 1061.33 8.33798C1080.84 3.82405 1101.75 1.5 1122.87 1.5C1144 1.5 1164.91 3.82405 1184.42 8.33797C1203.93 12.852 1221.65 19.4661 1236.56 27.7969C1251.48 36.1284 1263.29 46.0067 1271.33 56.8563C1279.38 67.7029 1283.5 79.3039 1283.5 91" stroke="white" stroke-opacity="0.1" stroke-linejoin="round" stroke-dasharray="6 6"/>
</svg>
