<svg width="35" height="35" viewBox="0 0 35 35" fill="none" xmlns="http://www.w3.org/2000/svg">
<g filter="url(#filter0_b)">
<path d="M15.9951 0.0750427C14.5664 0.218597 12.6318 0.751801 11.333 1.35336C8.50977 2.65903 6.04883 5.00375 4.55859 7.79282C3.86133 9.09164 3.28027 10.8622 3.02734 12.4754C2.86328 13.5077 2.86328 15.8182 3.02734 16.8163C3.45801 19.4823 4.49707 21.8407 6.1377 23.8914C6.70508 24.6024 16.8701 34.7743 17.1436 34.9041C17.3008 34.9793 17.458 34.9998 17.6562 34.9657C17.9297 34.9247 18.2373 34.6239 23.1797 29.6815C26.0576 26.7967 28.6074 24.1991 28.8398 23.912C32.7021 19.1063 33.2148 12.4754 30.1182 7.2186C27.2334 2.31723 21.6758 -0.49234 15.9951 0.0750427Z" fill="#947E2C" fill-opacity="0.7"/>
<path d="M11.5431 1.80706L11.5429 1.80718C8.82074 3.06609 6.43981 5.33298 4.99959 8.02845L4.99913 8.02931C4.33093 9.27399 3.76635 10.9899 3.52131 12.5529L3.52115 12.5539C3.44541 13.0304 3.4043 13.8346 3.4043 14.6587C3.4043 15.4836 3.44551 16.2776 3.52072 16.7351L3.52095 16.7365C3.93819 19.3195 4.94269 21.5973 6.52813 23.5791L6.5285 23.5796C6.64943 23.7311 7.36375 24.4734 8.41495 25.5434C9.45068 26.5977 10.782 27.9389 12.1045 29.2623C13.4271 30.5857 14.7399 31.8904 15.7388 32.872C16.2384 33.363 16.6582 33.7719 16.961 34.0615C17.1127 34.2066 17.2329 34.3197 17.3182 34.3976C17.352 34.4285 17.3784 34.452 17.398 34.469C17.4384 34.4824 17.4845 34.4866 17.5591 34.4749C17.572 34.4671 17.5961 34.4511 17.6347 34.4215C17.7553 34.3287 17.9561 34.1502 18.3213 33.8005C19.0451 33.1072 20.3523 31.8018 22.8257 29.3284C24.2639 27.8867 25.6199 26.5171 26.6449 25.4724C27.6832 24.4142 28.3524 23.719 28.4507 23.598C32.1844 18.9517 32.6766 12.5468 29.6874 7.47238L29.6873 7.47221C26.902 2.73988 21.5325 0.024456 16.0448 0.572567C14.6723 0.710526 12.792 1.22866 11.5431 1.80706ZM17.3581 34.4525L17.3593 34.4531L17.3581 34.4525ZM17.5472 34.4816C17.5471 34.4817 17.5482 34.4812 17.5506 34.4799C17.5484 34.4808 17.5472 34.4815 17.5472 34.4816Z" stroke="black" stroke-opacity="0.3"/>
</g>
<g clip-path="url(#clip0)">
<path d="M16.6991 16.218L15.8898 17.6011L11.8008 10.6155H9L15.8898 22.3847L18.1538 18.5173L16.6991 16.218Z" fill="black"/>
<path d="M20.1201 22.3847L14.2305 10.6155H25.9997L24.8084 13.0004H17.8138L21.315 19.9922L20.1201 22.3847Z" fill="black"/>
<path d="M23.3106 17.1539H20.844L19.4619 15.8462H24.6927L23.3106 17.1539Z" fill="black"/>
</g>
<defs>
<filter id="filter0_b" x="-1.0957" y="-3.99731" width="37.2275" height="42.9789" filterUnits="userSpaceOnUse" color-interpolation-filters="sRGB">
<feFlood flood-opacity="0" result="BackgroundImageFix"/>
<feGaussianBlur in="BackgroundImage" stdDeviation="2"/>
<feComposite in2="SourceAlpha" operator="in" result="effect1_backgroundBlur"/>
<feBlend mode="normal" in="SourceGraphic" in2="effect1_backgroundBlur" result="shape"/>
</filter>
<clipPath id="clip0">
<rect width="17" height="17" fill="white" transform="translate(9 8)"/>
</clipPath>
</defs>
</svg>
