<svg width="20" height="20" viewBox="0 0 20 20" fill="none" xmlns="http://www.w3.org/2000/svg">
<circle cx="10" cy="10" r="10" fill="#50AF95"/>
<path fill-rule="evenodd" clip-rule="evenodd" d="M11.0173 11.2202C10.9605 11.2245 10.6669 11.242 10.0121 11.242C9.49122 11.242 9.12141 11.2264 8.99167 11.2202C6.97879 11.1317 5.47635 10.7815 5.47635 10.3621C5.47635 9.94277 6.97879 9.593 8.99167 9.50307V10.8714C9.1233 10.8808 9.50021 10.9031 10.0211 10.9031C10.6461 10.9031 10.9591 10.8771 11.0154 10.8719V9.50402C13.0241 9.59347 14.5232 9.94371 14.5232 10.3621C14.5232 10.7805 13.0245 11.1307 11.0154 11.2197L11.0173 11.2202ZM11.0173 9.3625V8.13807H13.8205V6.2709H6.1885V8.13807H8.99119V9.36203C6.71315 9.46663 5 9.91768 5 10.4582C5 10.9987 6.71315 11.4493 8.99119 11.5544V15.478H11.0169V11.5529C13.2897 11.4483 15 10.9978 15 10.4577C15 9.91768 13.2911 9.4671 11.0169 9.36203L11.0173 9.3625Z" fill="white"/>
</svg>
